# xmcd
#
# Track frame offsets:
#      150
#      18880
#      34250
#      56677
#      77552
#      92557
#      107795
#      128877
#      148000
#      168472
#      183830
#
# Disc length: 2550
# Revision: 2
# Processed by: cddbd v1.4b41PL1 Copyright (c) Steve Scherf et al.
# Submitted via: PowerPlay 1.50
#
DISCID=8a09f40b
DTITLE=King Hash - Humdinger
DYEAR=1900
DGENRE=
TTITLE0=Hard As I Try
TTITLE1=I'm The One
TTITLE2=Jessie May
TTITLE3=Hey Now
TTITLE4=All I Ever Wanted Was You
TTITLE5=She's On The Move
TTITLE6=Deliver Me From Evil
TTITLE7=What Can I Do
TTITLE8=Leave A Light On
TTITLE9=Jack Fell Down
TTITLE10=Jessie May (Reprise)
EXTD=
EXTT0=
EXTT1=
EXTT2=
EXTT3=
EXTT4=
EXTT5=
EXTT6=
EXTT7=
EXTT8=
EXTT9=
EXTT10=
PLAYORDER=
